<?xml version="1.0" standalone="no"?>
<!DOCTYPE svg PUBLIC "-//W3C//DTD SVG 20010904//EN"
 "http://www.w3.org/TR/2001/REC-SVG-20010904/DTD/svg10.dtd">
<svg version="1.0" xmlns="http://www.w3.org/2000/svg"
 width="510.000000pt" height="510.000000pt" viewBox="0 0 510.000000 510.000000"
 preserveAspectRatio="xMidYMid meet">
<metadata>
Created by potrace 1.16, written by Peter Selinger 2001-2019
</metadata>
<g transform="translate(0.000000,510.000000) scale(0.100000,-0.100000)"
fill="#FFFFFF" stroke="none">
<path d="M1975 4313 c-520 -34 -1020 -321 -1286 -738 -196 -306 -282 -593
-282 -935 0 -342 86 -629 282 -935 143 -225 337 -398 612 -548 205 -111 434
-173 709 -192 184 -12 521 25 728 81 l92 25 47 -40 c75 -67 102 -71 458 -71
172 0 337 5 366 10 160 30 268 147 292 313 9 64 7 79 -12 132 -12 33 -23 67
-24 74 -1 11 88 50 308 135 171 67 324 129 342 138 43 24 81 76 99 134 20 68
20 380 -1 431 -28 71 -3 67 -585 73 -386 4 -531 8 -546 17 -43 25 -54 70 -54
223 0 105 4 150 15 174 30 63 9 61 585 66 559 5 548 4 581 54 19 28 26 368 9
435 -15 61 -52 116 -98 144 -35 22 -1439 574 -1674 658 -206 74 -437 121 -673
139 -135 10 -183 10 -290 3z m-678 -850 c61 -29 80 -116 38 -179 -22 -34 -85
-50 -134 -36 -95 29 -107 172 -18 216 41 20 71 20 114 -1z m953 -248 c150 -40
296 -159 362 -295 48 -99 62 -165 62 -280 0 -178 -53 -310 -171 -426 -119
-117 -248 -168 -423 -168 -178 0 -310 53 -426 171 -117 119 -168 248 -168 423
0 172 50 302 162 418 94 96 191 147 328 172 64 12 204 4 274 -15z m-1193 -472
c61 -29 80 -116 38 -179 -22 -34 -85 -50 -134 -36 -95 29 -107 172 -18 216 41
20 71 20 114 -1z m240 -720 c61 -29 80 -116 38 -179 -22 -34 -85 -50 -134 -36
-95 29 -107 172 -18 216 41 20 71 20 114 -1z"/>
<path d="M2014 2990 c-144 -29 -252 -140 -283 -292 -22 -106 22 -242 102 -315
161 -145 402 -125 529 42 80 105 95 241 41 357 -55 118 -140 185 -262 208 -60
11 -69 11 -127 0z"/>
</g>
</svg>
