<?xml version="1.0" standalone="no"?>
<!DOCTYPE svg PUBLIC "-//W3C//DTD SVG 20010904//EN"
 "http://www.w3.org/TR/2001/REC-SVG-20010904/DTD/svg10.dtd">
<svg version="1.0" xmlns="http://www.w3.org/2000/svg"
 width="510.000000pt" height="510.000000pt" viewBox="0 0 510.000000 510.000000"
 preserveAspectRatio="xMidYMid meet">
<metadata>
Created by potrace 1.16, written by Peter Selinger 2001-2019
</metadata>
<g transform="translate(0.000000,510.000000) scale(0.100000,-0.100000)"
fill="#08B6D3" stroke="none">
<path d="M1241 4436 c-81 -81 -111 -118 -105 -127 4 -8 321 -360 703 -784 869
-963 953 -1055 957 -1055 2 0 4 177 4 393 l-1 392 -709 643 c-391 353 -716
645 -723 647 -6 3 -63 -46 -126 -109z"/>
<path d="M3246 4094 l-504 -456 170 -157 c94 -86 174 -157 177 -159 6 -2 860
937 890 979 13 19 7 28 -100 135 -62 63 -117 114 -121 114 -4 0 -234 -205
-512 -456z"/>
<path d="M3040 2640 l0 -595 248 -248 247 -247 298 298 297 297 -545 545 -545
545 0 -595z"/>
<path d="M1907 2878 l-98 -91 -45 44 -44 43 -123 -121 -122 -122 -54 45 c-79
66 -107 78 -181 78 -142 0 -232 -91 -233 -234 -1 -53 4 -74 27 -117 16 -28 44
-66 62 -84 l35 -33 -483 -483 -483 -483 298 -297 297 -298 540 540 540 540 0
66 0 66 280 307 281 306 -192 210 c-105 115 -194 210 -198 210 -3 0 -50 -42
-104 -92z m-430 -795 c61 -29 80 -116 38 -179 -22 -34 -85 -50 -134 -36 -95
29 -107 172 -18 216 41 20 71 20 114 -1z"/>
<path d="M4154 1986 l-69 -66 369 -366 370 -365 65 65 66 66 -366 366 -365
365 -70 -65z"/>
<path d="M3920 1755 l-75 -75 205 -206 c113 -113 280 -277 371 -364 l166 -159
72 73 72 73 -361 366 c-199 202 -365 367 -369 367 -3 0 -40 -34 -81 -75z"/>
<path d="M3690 1523 l-61 -67 365 -365 366 -366 66 66 65 65 -361 367 c-199
202 -366 367 -370 367 -5 0 -36 -30 -70 -67z"/>
</g>
</svg>
