<?xml version="1.0" standalone="no"?>
<!DOCTYPE svg PUBLIC "-//W3C//DTD SVG 20010904//EN"
 "http://www.w3.org/TR/2001/REC-SVG-20010904/DTD/svg10.dtd">
<svg version="1.0" xmlns="http://www.w3.org/2000/svg"
 width="510.000000pt" height="510.000000pt" viewBox="0 0 510.000000 510.000000"
 preserveAspectRatio="xMidYMid meet">
<metadata>
Created by potrace 1.16, written by Peter Selinger 2001-2019
</metadata>
<g transform="translate(0.000000,510.000000) scale(0.100000,-0.100000)"
fill="#08B6D3" stroke="none">
<path d="M2320 4555 c0 -3 -54 -437 -120 -965 l-120 -959 0 -836 0 -835 480 0
480 0 0 835 0 836 -120 959 c-66 528 -120 962 -120 965 0 3 -108 5 -240 5
-132 0 -240 -2 -240 -5z m368 -1712 c52 -32 87 -77 102 -132 5 -20 10 -152 10
-293 l0 -258 -241 0 -240 0 3 278 3 279 30 48 c52 84 120 118 223 111 47 -3
75 -11 110 -33z"/>
<path d="M340 3840 l0 -180 -90 0 -90 0 0 -180 0 -180 90 0 90 0 0 -1140 0
-1140 180 0 180 0 0 151 c0 117 3 150 13 146 6 -3 155 -62 330 -132 l317 -127
0 -169 0 -169 240 0 240 0 0 840 0 840 -360 0 -360 0 0 -240 0 -240 -210 0
-210 0 0 690 0 690 90 0 90 0 0 180 0 180 -90 0 -90 0 0 180 0 180 -180 0
-180 0 0 -180z"/>
<path d="M4420 3840 l0 -180 -90 0 -90 0 0 -180 0 -180 90 0 90 0 0 -690 0
-690 -210 0 -210 0 0 240 0 240 -360 0 -360 0 0 -840 0 -840 240 0 240 0 0
169 0 169 318 127 c174 70 323 129 330 132 9 4 12 -29 12 -146 l0 -151 180 0
180 0 0 1140 0 1140 90 0 90 0 0 180 0 180 -90 0 -90 0 0 180 0 180 -180 0
-180 0 0 -180z"/>
</g>
</svg>
